<?xml version="1.0" encoding="utf-8"?>
<!-- Generator: Adobe Illustrator 21.0.0, SVG Export Plug-In . SVG Version: 6.00 Build 0)  -->
<svg version="1.1" id="Capa_1" xmlns="http://www.w3.org/2000/svg" xmlns:xlink="http://www.w3.org/1999/xlink" x="0px" y="0px"
	 viewBox="0 0 353 113" style="enable-background:new 0 0 353 113;" xml:space="preserve">
<style type="text/css">
	.st0{fill:#5E5F5F;}
	.st1{fill:#004E8A;}
	.st2{fill:#E95C26;}
</style>
<g>
	<polygon id="XMLID_180_" class="st0" points="4.3,90.4 3.5,92.5 321.9,92.5 322.7,90.4 	"/>
	<path id="XMLID_172_" class="st0" d="M30.6,106.9l-0.9,2.9h-2.9l3.7-11.2h3.7l3.8,11.2h-3l-0.9-2.9H30.6z M33.7,105l-0.8-2.4
		c-0.2-0.7-0.4-1.5-0.6-2.2h0c-0.2,0.7-0.4,1.5-0.6,2.2L31,105H33.7z"/>
	<path id="XMLID_171_" class="st0" d="M51.6,109.5c-0.5,0.2-1.7,0.5-3.1,0.5c-4.3,0-6.4-2.4-6.4-5.6c0-3.8,3-5.9,6.7-5.9
		c1.4,0,2.5,0.2,3,0.5l-0.6,2c-0.5-0.2-1.3-0.4-2.3-0.4c-2.2,0-3.9,1.2-3.9,3.7c0,2.2,1.5,3.7,3.9,3.7c0.9,0,1.8-0.1,2.3-0.4
		L51.6,109.5z"/>
	<path id="XMLID_156_" class="st0" d="M59.8,106.9l-0.9,2.9h-2.9l3.7-11.2h3.7l3.8,11.2h-3l-1-2.9H59.8z M63,105l-0.8-2.4
		c-0.2-0.7-0.4-1.5-0.6-2.2h0c-0.2,0.7-0.4,1.5-0.6,2.2l-0.7,2.4H63z"/>
	<path id="XMLID_153_" class="st0" d="M72.3,98.8c1-0.2,2.4-0.2,3.7-0.2c2.4,0,3.9,0.4,5.1,1.2c1.3,0.9,2.1,2.2,2.1,4.2
		c0,2.1-0.9,3.6-2,4.5c-1.3,1-3.3,1.4-5.7,1.4c-1.4,0-2.5-0.1-3.2-0.2V98.8z M75,107.9c0.2,0.1,0.6,0.1,1,0.1c2.5,0,4.2-1.2,4.2-3.9
		c0-2.3-1.5-3.6-3.9-3.6c-0.6,0-1,0.1-1.3,0.1V107.9z"/>
	<polygon id="XMLID_152_" class="st0" points="95.6,105.1 91.1,105.1 91.1,107.7 96.2,107.7 96.2,109.8 88.3,109.8 88.3,98.6 
		95.9,98.6 95.9,100.7 91.1,100.7 91.1,103 95.6,103 	"/>
	<path id="XMLID_151_" class="st0" d="M111.8,105.5c-0.1-1.4-0.1-3-0.1-4.6h0c-0.4,1.4-0.9,3-1.4,4.3l-1.5,4.4h-2.2l-1.3-4.3
		c-0.4-1.3-0.8-2.9-1.1-4.4h0c-0.1,1.5-0.1,3.2-0.2,4.6l-0.2,4.3h-2.6l0.8-11.2h3.7l1.2,3.7c0.4,1.3,0.8,2.7,1,4h0.1
		c0.3-1.3,0.7-2.8,1.2-4l1.3-3.7h3.7l0.7,11.2H112L111.8,105.5z"/>
	<rect id="XMLID_150_" x="120.2" y="98.6" class="st0" width="2.8" height="11.2"/>
	<path id="XMLID_147_" class="st0" d="M131.5,106.9l-0.9,2.9h-2.9l3.7-11.2h3.7l3.8,11.2h-3l-1-2.9H131.5z M134.7,105l-0.8-2.4
		c-0.2-0.7-0.4-1.5-0.6-2.2h0c-0.2,0.7-0.4,1.5-0.6,2.2l-0.7,2.4H134.7z"/>
	<path id="XMLID_144_" class="st0" d="M151,98.8c1-0.2,2.4-0.2,3.7-0.2c2.4,0,3.9,0.4,5.1,1.2c1.3,0.9,2.1,2.2,2.1,4.2
		c0,2.1-0.9,3.6-2,4.5c-1.3,1-3.3,1.4-5.7,1.4c-1.4,0-2.5-0.1-3.2-0.2V98.8z M153.7,107.9c0.2,0.1,0.6,0.1,1,0.1
		c2.5,0,4.2-1.2,4.2-3.9c0-2.3-1.5-3.6-3.9-3.6c-0.6,0-1,0.1-1.3,0.1V107.9z"/>
	<polygon id="XMLID_143_" class="st0" points="174.3,105.1 169.8,105.1 169.8,107.7 174.9,107.7 174.9,109.8 167,109.8 167,98.6 
		174.6,98.6 174.6,100.7 169.8,100.7 169.8,103 174.3,103 	"/>
	<path id="XMLID_142_" class="st0" d="M187.2,107.2c0.7,0.3,1.9,0.7,3.1,0.7c1.3,0,2-0.5,2-1.2c0-0.7-0.6-1.1-2.1-1.6
		c-2-0.7-3.4-1.7-3.4-3.3c0-1.9,1.8-3.4,4.7-3.4c1.4,0,2.4,0.2,3.1,0.6l-0.6,2c-0.5-0.2-1.4-0.5-2.6-0.5c-1.2,0-1.8,0.5-1.8,1.1
		c0,0.7,0.7,1,2.3,1.6c2.2,0.7,3.2,1.8,3.2,3.3c0,1.9-1.6,3.5-5,3.5c-1.4,0-2.8-0.4-3.5-0.7L187.2,107.2z"/>
	<path id="XMLID_139_" class="st0" d="M211.5,104.1c0,3.7-2.4,5.9-6.1,5.9c-3.6,0-5.8-2.5-5.8-5.7c0-3.4,2.4-5.9,6-5.9
		C209.5,98.4,211.5,101,211.5,104.1 M202.6,104.2c0,2.2,1.1,3.8,3,3.8c1.9,0,3-1.6,3-3.8c0-2-1-3.8-3-3.8
		C203.7,100.4,202.6,102.1,202.6,104.2"/>
	<polygon id="XMLID_138_" class="st0" points="216.7,98.6 224.2,98.6 224.2,100.7 219.5,100.7 219.5,103.3 223.9,103.3 223.9,105.3 
		219.5,105.3 219.5,109.8 216.7,109.8 	"/>
	<path id="XMLID_132_" class="st1" d="M226.3,4h-55l-29.1,80.1h55c4.6,0,9.6-3.7,11.3-8.3l23.1-63.6C233.2,7.7,230.8,4,226.3,4
		 M202.4,9.1L177,78.9c-0.3,0.8-1.2,1.4-1.9,1.4c-0.8,0-1.2-0.6-0.9-1.4l25.4-69.8c0.3-0.8,1.2-1.4,1.9-1.4
		C202.3,7.7,202.7,8.3,202.4,9.1"/>
	<path id="XMLID_130_" class="st1" d="M56.5,36.2L40.9,78.9c-0.3,0.8-1.1,1.4-1.9,1.4c-0.8,0-1.2-0.6-0.9-1.4L63.5,9.1
		c0.3-0.8,1.2-1.4,1.9-1.4c0.8,0,1.2,0.6,0.9,1.4l-8.8,24.2h30.2l7.7-21.1C97.1,7.7,94.7,4,90.2,4H43.4c-4.6,0-9.6,3.7-11.3,8.3
		L9,75.8c-1.7,4.6,0.7,8.3,5.2,8.3H61c4.6,0,9.6-3.7,11.3-8.3l14.4-39.7L56.5,36.2z"/>
	<path id="XMLID_74_" class="st1" d="M158.2,4.3h-55.1l-10.5,29h30.3l8.7-23.9c0.3-0.8,1.2-1.4,1.9-1.4c0.8,0,1.2,0.6,0.9,1.4
		l-9.7,26.7H124h-2.2H91.5L77,76.1c-1.7,4.6,0.7,8.2,5.2,8.2h55l26.2-71.8C165.1,8,162.8,4.3,158.2,4.3 M109,79.3
		c-0.3,0.8-1.1,1.4-1.9,1.4c-0.8,0-1.2-0.6-0.9-1.4L120.8,39h2.8L109,79.3z"/>
	<polygon id="XMLID_33_" class="st1" points="239.4,4 210.3,84.1 241,84.1 270.2,4 	"/>
	<path class="st2" d="M343.7,9.4H286c-4.6,0-9.6,3.7-11.3,8.3l-20.6,56.5c-1.7,4.6,0.7,8.3,5.3,8.3h57.7c4.6,0,9.6-3.7,11.3-8.3
		L349,17.7C350.6,13.1,348.3,9.4,343.7,9.4z M305.2,36.3h-16l-2.6,7h15.2l-2.1,5.7h-15.2l-4.5,12.3h-6.9l11.2-30.7h22.9L305.2,36.3z
		 M320.9,61.3h-7.5l8.3-23.2l-9.7,6l-2.8-4l14-8.4h8.4L320.9,61.3z"/>
	<polygon id="XMLID_32_" class="st0" points="232,100.7 228.7,100.7 228.7,98.6 238.2,98.6 238.2,100.7 234.8,100.7 234.8,109.8 
		232,109.8 	"/>
	<path id="XMLID_31_" class="st0" d="M245.4,109.8l-2.9-11.2h3l0.9,4.6c0.3,1.3,0.5,2.8,0.7,3.9h0c0.2-1.2,0.5-2.6,0.8-4l1-4.6h3
		l1,4.7c0.3,1.3,0.5,2.5,0.7,3.8h0c0.2-1.3,0.5-2.6,0.7-3.9l1-4.6h2.8l-3.2,11.2h-3l-1-4.8c-0.2-1.1-0.4-2.2-0.6-3.5h0
		c-0.2,1.3-0.4,2.3-0.7,3.5l-1.2,4.8H245.4z"/>
	<path id="XMLID_23_" class="st0" d="M264.9,106.9l-0.9,2.9h-2.9l3.8-11.2h3.7l3.8,11.2h-3l-0.9-2.9H264.9z M268,105l-0.8-2.4
		c-0.2-0.7-0.4-1.5-0.6-2.2h0c-0.2,0.7-0.4,1.5-0.6,2.2l-0.7,2.4H268z"/>
	<path id="XMLID_19_" class="st0" d="M277.3,98.8c0.9-0.1,2.2-0.2,3.7-0.2c1.8,0,3.1,0.2,4,0.9c0.8,0.5,1.2,1.3,1.2,2.4
		c0,1.4-1.1,2.4-2.2,2.7v0c0.9,0.3,1.3,1.1,1.6,2.1c0.4,1.3,0.8,2.7,1,3.2h-2.9c-0.2-0.3-0.5-1.2-0.8-2.6c-0.3-1.4-0.9-1.8-2-1.8
		h-0.8v4.4h-2.8V98.8z M280.1,103.6h1.1c1.4,0,2.2-0.6,2.2-1.6c0-1-0.8-1.6-2.1-1.6c-0.7,0-1.1,0-1.3,0.1V103.6z"/>
	<polygon id="XMLID_18_" class="st0" points="298.8,105.1 294.3,105.1 294.3,107.7 299.3,107.7 299.3,109.8 291.5,109.8 291.5,98.6 
		299.1,98.6 299.1,100.7 294.3,100.7 294.3,103 298.8,103 	"/>
</g>
</svg>
